<svg id="Layer_1" data-name="Layer 1" xmlns="http://www.w3.org/2000/svg" viewBox="0 0 1712 608"><defs><style>.cls-1{fill:none;}.cls-2{fill:#fff;}.cls-3{fill:#ace2b8;}</style></defs><title>parkletslogobox</title><path class="cls-1" d="M1232.18,235.27c-18.87,0-32.7,8-42.68,20.07A97.45,97.45,0,0,0,1179.29,279l82.08-25.67a29.62,29.62,0,0,0-2.15-9.48C1252.82,237.94,1243.44,235.27,1232.18,235.27Z"/><path class="cls-1" d="M443.71,178.2a36.39,36.39,0,0,0-3.15-15.81c-9.59-9.59-26-14.2-49.05-14.2h-42a14.39,14.39,0,0,0-7.53,1.94l-19.83,81h54.48c22.43,0,39.42-4.39,50.51-13S443.71,196.36,443.71,178.2Z"/><path class="cls-1" d="M516.48,336a29,29,0,0,0-3.39,13.74c0,13.18,11.89,15.15,19,15.15,12.68,0,28.84-6.07,44.64-16.73l8.51-34.54C552.22,315.45,528.9,323.14,516.48,336Z"/><path class="cls-2" d="M391.51,148.19c23.09,0,39.46,4.61,49.05,14.2a26.11,26.11,0,0,0-8.71-10.21c-8.53-6-22.1-9-40.34-9h-42c-2.65,0-5.89.7-7.35,6.19l-.18.75a14.39,14.39,0,0,1,7.53-1.94Z"/><path class="cls-2" d="M287,146.79c-1.29-1.64-5.62-3.6-18.88-3.6H235.67c-29,0-53.26,6.95-70.13,20.1A63.79,63.79,0,0,0,150,180.59c16.9-20.2,46.58-32.4,85.67-32.4h32.46c9.1,0,15.57.82,19.88,2.85C288,148.74,287.54,147.47,287,146.79Z"/><path class="cls-2" d="M174.17,286.42c-19.63,0-36.37-6.83-48.42-19.75-.66-.7-1.29-1.43-1.92-2.17,10.29,17.23,28.15,26.92,50.34,26.92,24.81,0,44.68-11.31,54.61-28.25C216.47,277.5,197,286.42,174.17,286.42Z"/><path class="cls-2" d="M246,447.85c-17.48,14.54-39,21.91-63.83,21.91-17.23,0-30.88-3.88-40.57-11.53a39.61,39.61,0,0,1-3.87-3.51c5.22,10.77,18.9,20,44.44,20,32.07,0,59.69-13.36,78.05-41.56A99.21,99.21,0,0,1,246,447.85Z"/><path class="cls-2" d="M483.6,226a78.27,78.27,0,0,1-20.24,17c-21.21,12.63-51.17,19-89,19H314.1l-1.25,5h61.47C425.75,267,466.09,254.85,483.6,226Z"/><path class="cls-2" d="M516,398.33c-15.83,0-29.31-3.81-39-11a41.58,41.58,0,0,1-5.4-4.79c6.95,13.46,23.14,20.82,44.39,20.82,24.8,0,43.36-8.87,59.94-20.22a25.85,25.85,0,0,1-1.22-2.79C559.56,390,540.83,398.33,516,398.33Z"/><path class="cls-2" d="M581.48,390.31c3.34,8.55,11.53,12.26,22.77,12.26a58.94,58.94,0,0,0,31.32-8.4l1.16-4.63a65.28,65.28,0,0,1-32.48,8C594.52,397.57,586.83,395,581.48,390.31Z"/><path class="cls-2" d="M585.21,313.58l1.25-5.07c-45.5,2.37-63.45,15.16-70,27.45C528.9,323.14,552.22,315.45,585.21,313.58Z"/><path class="cls-2" d="M519.84,271.9a21.12,21.12,0,0,1-12.89-4c1.56,6.1,6.82,9,12.89,9,7.7,0,15.08-4.5,21.25-15.25C533.72,269.85,525.85,271.9,519.84,271.9Z"/><path class="cls-2" d="M581.34,229.89c-14.57,0-24.75,5.64-31,17.23,7.75-8.38,18.27-12.23,31-12.23,7.94,0,14.3,1.27,18.79,4.37a11.3,11.3,0,0,0-2-4.37C595.53,231.52,590,229.89,581.34,229.89Z"/><path class="cls-2" d="M708.75,253a13,13,0,0,0-2.57-.2h-12.5l-1.25,5h13.75c.6,0,1.16,0,1.71.06l.28-1.16A15.92,15.92,0,0,0,708.75,253Z"/><path class="cls-2" d="M814.65,263.15c9.15,0,16.27-4.44,19.49-12.12a28.54,28.54,0,0,1-19.49,7.12c-12.07,0-17.85-7.06-22.07-12.21-3.45-4.22-4.7-5.36-7-5.36-7.56,0-19.47,5.88-29.45,19l-.44,1.76c10.21-10.7,21.63-15.74,29.89-15.74C798.23,245.58,798.23,263.15,814.65,263.15Z"/><polygon class="cls-2" points="658.87 393.37 657.67 398.37 742.85 398.37 744.05 393.37 742.85 393.37 658.87 393.37"/><path class="cls-2" d="M890.07,325.39l-.92,3.74,24-19.51-.72-2.4Z"/><polygon class="cls-2" points="809.03 393.37 807.83 398.37 893.01 398.37 894.21 393.37 893.01 393.37 809.03 393.37"/><path class="cls-2" d="M1118,469.54c-14,7.53-32.69,11.68-52.74,11.68a103.81,103.81,0,0,1-48.94-12.31c-15.24-8.05-29.63-20.09-42.79-35.79q-3.37-4-6.63-8.35c27.82,40.54,61.28,61.45,98.36,61.45,31.89,0,58.8-11,67.18-27.5A56.32,56.32,0,0,1,1118,469.54Z"/><path class="cls-2" d="M881.66,161.49l0-.15a16.29,16.29,0,0,0,.71-3.47,13.54,13.54,0,0,0-2.39-.17H867.27l-1,5H880c.46,0,.9,0,1.33,0l.28-1.11Z"/><path class="cls-2" d="M979.55,253.91,954,274.74c.21.82.43,1.63.65,2.44l20.47-16.7c21.77-17.57,34-22.92,56.53-24.83l1-5.06-.42,0C1011.08,232.42,1000.23,237.21,979.55,253.91Z"/><path class="cls-2" d="M955.16,233.29c-1.33-.7-4.69-1.94-12.28-2.55l-1,4.91A70.71,70.71,0,0,1,952,237,18.25,18.25,0,0,0,955.16,233.29Z"/><polygon class="cls-2" points="1003.83 393.37 1002.63 398.37 1087.8 398.37 1089 393.37 1087.8 393.37 1003.83 393.37"/><path class="cls-2" d="M1077.06,157.85a13.67,13.67,0,0,0-2.24-.15h-12.75l-1,5h13.75c.46,0,.9,0,1.33,0l.28-1.13A18.26,18.26,0,0,0,1077.06,157.85Z"/><path class="cls-2" d="M1232.18,235.27c11.26,0,20.64,2.67,27,8.55a19.67,19.67,0,0,0-3.94-6.09c-4.8-4.95-12.57-7.46-23.1-7.46-15.4,0-28.15,6.14-37.9,18.25a65.35,65.35,0,0,0-4.78,6.82C1199.48,243.32,1213.31,235.27,1232.18,235.27Z"/><path class="cls-2" d="M1273.09,376.43c-16.89,14.62-39,22.67-62.3,22.67-26.17,0-48.4-8.37-64.29-24.2a74,74,0,0,1-5-5.5c13,21,36.86,34.7,69.27,34.7,33.33,0,59.73-17.51,72.26-37.91A82,82,0,0,1,1273.09,376.43Z"/><path class="cls-2" d="M1173.15,316.58l126.25-39.29c0-1.58-.07-3.11-.17-4.62l-125.84,39.17C1173.26,313.51,1173.19,315.07,1173.15,316.58Z"/><polygon class="cls-2" points="1398.07 236.76 1396.82 241.76 1438.05 241.76 1439.27 236.76 1438.05 236.76 1398.07 236.76"/><path class="cls-2" d="M1329.86,387.32c5.06,11.43,17.62,15.25,33.71,15.25,11.08,0,26.74-3.06,36.28-7.26l1.27-4.94c-10.37,4.21-25.82,7.2-37.55,7.2C1348.15,397.57,1337.06,394.21,1329.86,387.32Z"/><polygon class="cls-2" points="1334.2 236.76 1333.01 241.76 1348.4 241.76 1349.64 236.76 1334.2 236.76"/><path class="cls-2" d="M1541.15,328.54c-7.45-4.48-18.22-7.66-30.52-11.06-13.43-3.78-28.74-8.49-40.47-16.47a54,54,0,0,1-9.84-8.49c9.15,17.1,31.35,24.34,52.21,30.22,15.57,4.31,29.64,8.48,38,16C1549.14,334.74,1546.15,331.53,1541.15,328.54Z"/><path class="cls-2" d="M1584.57,277.5c.58,1.54,1.15,3.12,1.68,4.75l9.54-1.14-.44-4.9-8.27,1Z"/><path class="cls-2" d="M1572.49,382.28c-14.5,10.84-34.71,16.82-56.91,16.82-19.53,0-39-5.6-53.2-14.71,0,1.17.08,2.37.11,3.57,13.3,10,33.44,16.14,53.09,16.14,29.7,0,55.24-11.09,67.22-31.41A65.21,65.21,0,0,1,1572.49,382.28Z"/><path class="cls-2" d="M1557.56,239.36c-8.71-6.29-19.36-9.47-31.66-9.47-10.22,0-18.37,2.23-23.57,6.45a17,17,0,0,0-5.33,7.36c6.09-5.43,15.64-8.81,28.9-8.81,17.54,0,33.86,5.94,46,20.38A53.49,53.49,0,0,0,1557.56,239.36Z"/><path class="cls-2" d="M1379.22,495.73c-28.24,0-44.24-10.67-52.7-19.62-.42-.45-.82-.91-1.23-1.37,8.6,15.18,26.8,26,53.93,26,25.19,0,47.41-12.13,61.3-34.24-.63.79-1.26,1.58-1.91,2.34A77.47,77.47,0,0,1,1379.22,495.73Z"/><path class="cls-3" d="M493.11,177.05c0-42.39-39.73-58.05-99.31-58.05H235.67c-78.69,0-121.46,42.78-121.46,94.72,0,40.87,24.44,65.7,60,65.7,35.91,0,61.5-23.68,61.5-53.86,0-14.13-9.17-26-24.45-26-11.84,0-21.77,8.79-21.77,22.54,0,10.31,5.73,15.27,5.73,24.06,0,10.69-8.78,15.66-22.53,15.66-23.69,0-38.58-19.1-38.58-48.13,0-45.83,38.58-77.53,101.6-77.53h32.46c24.83,0,30.18,6.11,25.21,26.35L237.58,386.37C226.12,432.58,212,444,193.65,444c-11.07,0-14.13-8.4-17.19-16.8-3.43-8.79-6.87-18.34-20.24-18.34-11.46,0-21,8.41-21,22.92s13,30.94,47,30.94c45.08,0,81.36-26.36,95.49-83.27L308.62,255h65.7C443.84,255,493.11,232.82,493.11,177.05Zm-116.5,61.12h-63.4l22.15-90.53c1.91-7.25,6.87-11.45,14.13-11.45h42c39.34,0,59.2,13.36,59.2,42C450.71,219.45,424,238.17,376.61,238.17Z"/><path class="cls-3" d="M616.86,352l21.77-88.23c11.08-43.16-22.92-55.38-54.62-55.38-45.83,0-77.54,19.47-77.54,43.54,0,8.78,6.11,13,13.37,13,8.4,0,16.43-5.34,22.92-18.33,7.64-16.42,21-23.68,38.58-23.68,21.39,0,31.32,9.17,24.06,38.58l-6.88,26c-80.21,1.15-130.62,23.3-130.62,66.84,0,23.68,19.47,37.05,48.12,37.05,26.74,0,46.22-10.31,63.79-22.91,0,15.66,9.55,22.15,24.44,22.15a58.94,58.94,0,0,0,31.32-8.4L639,368.42c-6.49,3.05-11.46,4.2-15.28,4.2C615.33,372.62,613.42,366.12,616.86,352Zm-34,.38c-18,12.61-36.28,19.48-50.8,19.48-15.66,0-26-8-26-22.15,0-30.18,31.7-47.36,89.38-48.51Z"/><path class="cls-3" d="M785.63,233.58c12.6,0,12.6,17.57,29,17.57,12.61,0,21.39-8.4,21.39-22.15,0-11.08-7.25-20.62-26-20.62-17.19,0-38.58,9.16-54.62,25.2l6.11-25.2H749.34l-55,29.79-1.91,7.64h13.75c8.4,0,11.08,3.43,8.78,12.6L690.52,357c-3.44,13.75-9.17,18-30.56,19.86l-2.29,9.55h85.18l2.29-9.55c-20.25-1.91-23.68-6.11-20.25-19.86L749.72,256.5C761.18,240.84,775.69,233.58,785.63,233.58Z"/><path class="cls-3" d="M1135.17,435.64c0-9.55-6.5-16.42-17.19-16.42-25.21,0-26,37.81-55,37.81-34.76,0-74.1-19.86-116.88-184.87l29-23.68c21.77-17.57,34-22.92,56.53-24.83l1.91-9.55H943.81l-1.91,9.55c29.41,1.91,22.15,13.37,10.31,22.16L890,296.23l45.45-183H923.18L867.8,143.06l-1.53,7.64H880c8.4,0,11.08,3.44,8.4,12.6L840.68,357c-3.44,13.75-9.17,18-30.56,19.86l-2.29,9.55H893l2.29-9.55c-20.25-1.91-23.68-6.11-20.25-19.86l8.79-35.52,32.47-26.36c32.08,117.26,85.17,179.14,149,179.14C1103.85,474.22,1135.17,458.18,1135.17,435.64Z"/><path class="cls-3" d="M1004.92,376.82l-2.29,9.55h85.17l2.3-9.55c-20.25-1.91-23.69-6.11-20.25-19.86l60.35-243.69H1118l-55.38,29.79-1.53,7.64h13.75c8.4,0,10.69,3.44,8.4,12.6L1035.48,357C1032,370.71,1026.31,374.91,1004.92,376.82Z"/><path class="cls-3" d="M1299.4,265.29c0-40.49-34.37-56.91-68.37-56.91-53.85,0-100.83,40.86-100.83,107.33,0,42.77,29.79,76.39,80.59,76.39,47,0,80.21-34.76,80.21-63.41,0-8.78-4.58-18.33-17.57-18.33a20.93,20.93,0,0,0-20.62,21.39c0,6.87,4.2,11.46,4.2,18.71,0,10.7-15.66,25.59-41.64,25.59-35.52,0-49.27-22.91-49.27-53.47a124.62,124.62,0,0,1,.76-16Zm-30.93-6.88-98.93,30.94c6.49-32.47,24.06-66.08,62.64-66.08C1254.33,223.27,1269.23,233.58,1268.47,258.41Z"/><path class="cls-3" d="M1330,344.73c-9.17,35.91,7.64,45.84,33.61,45.84,11.08,0,26.74-3.06,36.28-7.26l3.82-14.89a74.63,74.63,0,0,1-24.82,4.58c-15.66,0-19.87-8.79-15.28-26.74l29-116.49h45.45l3.82-15.67h-45.45l14.13-56.53h-12.22c-14.14,32.85-30.56,53.48-63.41,64.17l-1.91,8h25.59Z"/><path class="cls-3" d="M1590.06,332.89c0-34.37-33.23-44.69-61.11-53.09-22.53-6.87-40.1-13-40.1-29.41,0-15.28,11.84-27.5,37.05-27.5,26,0,49.27,13,60.35,47.36l9.54-1.14-5-55h-9.55l-5.73,10.32c-11.46-9.17-27.12-16-50-16-41.25,0-69.51,22.15-69.51,53.85,0,30.94,29.41,40.87,56.53,48.51,24.82,6.88,45.83,13.37,45.83,33.61,0,23.68-21,32.85-43.54,32.85-29.79,0-55.38-14.9-73-51.95l-10.7,3.82c6.11,24.07,8.79,45.46,8.79,66.08,0,50-26.74,77.92-60.35,77.92-19.87,0-27.12-11.46-27.12-19.48,0-10.69,9.55-13.37,9.55-25.21,0-10-9-16.82-18-16.82l-.73,0c-14.9.38-22.54,13-23.68,26.35-1.53,26.74,19.1,50.8,59.58,50.8,42.4,0,76.4-34.37,76.4-92.81a237.23,237.23,0,0,0-1.53-27.89c11.84,14.52,37.05,24.07,61.49,24.07C1556.83,392.1,1590.06,370.71,1590.06,332.89Z"/></svg>