<?xml version="1.0" encoding="utf-8"?>
<!-- Generator: Adobe Illustrator 22.1.0, SVG Export Plug-In . SVG Version: 6.00 Build 0)  -->
<svg version="1.1" id="Layer_1" xmlns="http://www.w3.org/2000/svg" xmlns:xlink="http://www.w3.org/1999/xlink" x="0px" y="0px"
	 viewBox="0 0 146 146" style="enable-background:new 0 0 146 146;" xml:space="preserve">
<style type="text/css">
	.st0{fill:#FAF3DD;}
	.st1{fill:none;stroke:#EFE8D8;stroke-miterlimit:10;}
</style>
<g>
	<rect class="st0" width="146" height="146"/>
</g>
<g>
	<g>
		<line class="st1" x1="0" y1="48.7" x2="0" y2="73"/>
	</g>
	<g >
		<rect x="0" y="97.3" class="st1" width="48.7" height="24.3"/>
		<rect x="0" y="121.7" class="st1" width="24.3" height="24.3"/>
		<path class="st1" d="M48.7,146c0-26.9-21.8-48.7-48.7-48.7"/>
		<path class="st1" d="M24.3,146c0-13.4-10.9-24.3-24.3-24.3"/>
		<path class="st1" d="M36.5,146c0-20.2-16.3-36.5-36.5-36.5"/>
	</g>
	<g>
		<line class="st1" x1="0" y1="146" x2="24.3" y2="146"/>
		<line class="st1" x1="48.7" y1="146" x2="97.3" y2="146"/>
		<line class="st1" x1="24.3" y1="146" x2="48.7" y2="146"/>
	</g>
	<g>
		<line class="st1" x1="24.3" y1="0" x2="0" y2="0"/>
		<line class="st1" x1="0" y1="24.3" x2="0" y2="48.7"/>
	</g>
	<g>
		<rect class="st1" width="24.3" height="24.3"/>
		<rect y="24.3" class="st1" width="24.3" height="48.7"/>
		<rect x="48.7" class="st1" width="48.7" height="24.3"/>
		<rect x="48.7" y="24.3" class="st1" width="24.3" height="24.3"/>
		<rect x="24.3" class="st1" width="24.3" height="73"/>
		<rect y="73" class="st1" width="48.7" height="24.3"/>
		<path class="st1" d="M97.3,48.7C97.3,21.8,75.5,0,48.7,0S0,21.8,0,48.7s21.8,48.7,48.7,48.7"/>
		<path class="st1" d="M73,48.7c0-13.4-10.9-24.3-24.3-24.3S24.3,35.2,24.3,48.7S35.2,73,48.7,73"/>
		<path class="st1" d="M85.2,48.7c0-20.2-16.3-36.5-36.5-36.5S12.2,28.5,12.2,48.7s16.3,36.5,36.5,36.5"/>
	</g>
	<g>
		<line class="st1" x1="97.3" y1="0" x2="48.7" y2="0"/>
	</g>
	<g>
		<line class="st1" x1="121.7" y1="24.3" x2="97.3" y2="24.3"/>
		<line class="st1" x1="146" y1="24.3" x2="121.7" y2="24.3"/>
		<rect x="97.3" y="24.3" class="st1" width="48.7" height="24.3"/>
		<path class="st1" d="M97.3,0c0,26.9,21.8,48.7,48.7,48.7"/>
		<path class="st1" d="M121.7,0c0,13.4,10.9,24.3,24.3,24.3"/>
		<path class="st1" d="M109.5,0c0,20.2,16.3,36.5,36.5,36.5"/>
	</g>
	<g>
		<rect x="48.7" y="48.7" class="st1" width="24.3" height="24.3"/>
		<rect x="48.7" y="73" class="st1" width="24.3" height="48.7"/>
		<rect x="97.3" y="48.7" class="st1" width="48.7" height="24.3"/>
		<rect x="97.3" y="73" class="st1" width="24.3" height="24.3"/>
		<rect x="73" y="48.7" class="st1" width="24.3" height="73"/>
		<rect x="48.7" y="121.7" class="st1" width="48.7" height="24.3"/>
		<path class="st1" d="M146,97.3c0-26.9-21.8-48.7-48.7-48.7S48.7,70.5,48.7,97.3S70.5,146,97.3,146"/>
		<path class="st1" d="M121.7,97.3c0-13.4-10.9-24.3-24.3-24.3S73,83.9,73,97.3s10.9,24.3,24.3,24.3"/>
		<path class="st1" d="M133.8,97.3c0-20.2-16.3-36.5-36.5-36.5S60.8,77.2,60.8,97.3s16.3,36.5,36.5,36.5"/>
	</g>
	<g>
		<rect x="97.3" y="97.3" class="st1" width="24.3" height="24.3"/>
		<line class="st1" x1="97.3" y1="121.7" x2="121.7" y2="121.7"/>
		<line class="st1" x1="146" y1="121.7" x2="146" y2="97.3"/>
		<line class="st1" x1="146" y1="146" x2="146" y2="121.7"/>
		<line class="st1" x1="121.7" y1="97.3" x2="146" y2="97.3"/>
		<path class="st1" d="M146,97.3c-26.9,0-48.7,21.8-48.7,48.7"/>
		<path class="st1" d="M146,121.7c-13.4,0-24.3,10.9-24.3,24.3"/>
		<path class="st1" d="M146,109.5c-20.2,0-36.5,16.3-36.5,36.5"/>
	</g>
	<g>
		<line class="st1" x1="146" y1="24.3" x2="146" y2="0"/>
		<line class="st1" x1="146" y1="73" x2="146" y2="24.3"/>
		<line class="st1" x1="146" y1="97.3" x2="146" y2="73"/>
	</g>
</g>
</svg>
